<svg width="303" height="55" viewBox="0 0 303 55" fill="none" xmlns="http://www.w3.org/2000/svg">
<path d="M73.517 37V19.5455H80.4034C81.7273 19.5455 82.8551 19.7983 83.7869 20.304C84.7188 20.804 85.429 21.5 85.9176 22.392C86.4119 23.2784 86.6591 24.3011 86.6591 25.4602C86.6591 26.6193 86.4091 27.642 85.9091 28.5284C85.4091 29.4148 84.6847 30.1051 83.7358 30.5994C82.7926 31.0937 81.6506 31.3409 80.3097 31.3409H75.9205V28.3835H79.7131C80.4233 28.3835 81.0085 28.2614 81.4688 28.017C81.9347 27.767 82.2813 27.4233 82.5085 26.9858C82.7415 26.5426 82.858 26.0341 82.858 25.4602C82.858 24.8807 82.7415 24.375 82.5085 23.9432C82.2813 23.5057 81.9347 23.1676 81.4688 22.929C81.0028 22.6847 80.4119 22.5625 79.696 22.5625H77.2074V37H73.517ZM92.3693 37.2472C91.5341 37.2472 90.7898 37.1023 90.1364 36.8125C89.483 36.517 88.9659 36.0824 88.5852 35.5085C88.2102 34.929 88.0227 34.2074 88.0227 33.3438C88.0227 32.6165 88.1563 32.0057 88.4233 31.5114C88.6903 31.017 89.054 30.6193 89.5142 30.3182C89.9744 30.017 90.4972 29.7898 91.0824 29.6364C91.6733 29.483 92.2926 29.375 92.9403 29.3125C93.7017 29.233 94.3153 29.1591 94.7812 29.0909C95.2472 29.017 95.5852 28.9091 95.7955 28.767C96.0057 28.625 96.1108 28.4148 96.1108 28.1364V28.0852C96.1108 27.5455 95.9403 27.1278 95.5994 26.8324C95.2642 26.5369 94.7869 26.3892 94.1676 26.3892C93.5142 26.3892 92.9943 26.5341 92.608 26.8239C92.2216 27.108 91.9659 27.4659 91.8409 27.8977L88.483 27.625C88.6534 26.8295 88.9886 26.142 89.4886 25.5625C89.9886 24.9773 90.6335 24.5284 91.4233 24.2159C92.2188 23.8977 93.1392 23.7386 94.1847 23.7386C94.9119 23.7386 95.608 23.8239 96.2727 23.9943C96.9432 24.1648 97.5369 24.429 98.054 24.7869C98.5767 25.1449 98.9886 25.6051 99.2898 26.1676C99.5909 26.7244 99.7415 27.392 99.7415 28.1705V37H96.2983V35.1847H96.196C95.9858 35.5938 95.7045 35.9545 95.3523 36.267C95 36.5739 94.5767 36.8153 94.0824 36.9915C93.5881 37.1619 93.017 37.2472 92.3693 37.2472ZM93.4091 34.7415C93.9432 34.7415 94.4148 34.6364 94.8239 34.4261C95.233 34.2102 95.554 33.9205 95.7869 33.5568C96.0199 33.1932 96.1364 32.7812 96.1364 32.321V30.9318C96.0227 31.0057 95.8665 31.0739 95.6676 31.1364C95.4744 31.1932 95.2557 31.2472 95.0114 31.2983C94.767 31.3437 94.5227 31.3864 94.2784 31.4261C94.0341 31.4602 93.8125 31.4915 93.6136 31.5199C93.1875 31.5824 92.8153 31.6818 92.4972 31.8182C92.179 31.9545 91.9318 32.1392 91.7557 32.3722C91.5795 32.5994 91.4915 32.8835 91.4915 33.2244C91.4915 33.7188 91.6705 34.0966 92.0284 34.358C92.392 34.6136 92.8523 34.7415 93.4091 34.7415ZM102.558 37V23.9091H106.189V37H102.558ZM104.382 22.2216C103.842 22.2216 103.379 22.0426 102.993 21.6847C102.612 21.321 102.422 20.8864 102.422 20.3807C102.422 19.8807 102.612 19.4517 102.993 19.0938C103.379 18.7301 103.842 18.5483 104.382 18.5483C104.922 18.5483 105.382 18.7301 105.763 19.0938C106.149 19.4517 106.342 19.8807 106.342 20.3807C106.342 20.8864 106.149 21.321 105.763 21.6847C105.382 22.0426 104.922 22.2216 104.382 22.2216ZM119.989 27.642L116.665 27.8466C116.609 27.5625 116.487 27.3068 116.299 27.0795C116.112 26.8466 115.864 26.6619 115.558 26.5256C115.256 26.3835 114.896 26.3125 114.475 26.3125C113.913 26.3125 113.438 26.4318 113.052 26.6705C112.665 26.9034 112.472 27.2159 112.472 27.608C112.472 27.9205 112.597 28.1847 112.847 28.4006C113.097 28.6165 113.526 28.7898 114.134 28.9205L116.504 29.3977C117.776 29.6591 118.725 30.0795 119.35 30.6591C119.975 31.2386 120.288 32 120.288 32.9432C120.288 33.8011 120.035 34.554 119.529 35.2017C119.029 35.8494 118.342 36.3551 117.467 36.7188C116.597 37.0767 115.594 37.2557 114.458 37.2557C112.725 37.2557 111.344 36.8949 110.316 36.1733C109.293 35.446 108.694 34.4574 108.518 33.2074L112.089 33.0199C112.197 33.5483 112.458 33.9517 112.873 34.2301C113.288 34.5028 113.819 34.6392 114.467 34.6392C115.103 34.6392 115.614 34.517 116.001 34.2727C116.393 34.0227 116.592 33.7017 116.597 33.3097C116.592 32.9801 116.452 32.7102 116.18 32.5C115.907 32.2841 115.487 32.1193 114.918 32.0057L112.651 31.554C111.373 31.2983 110.421 30.8551 109.796 30.2244C109.177 29.5937 108.867 28.7898 108.867 27.8125C108.867 26.9716 109.094 26.2472 109.549 25.6392C110.009 25.0312 110.654 24.5625 111.484 24.233C112.319 23.9034 113.296 23.7386 114.415 23.7386C116.069 23.7386 117.37 24.0881 118.319 24.7869C119.273 25.4858 119.83 26.4375 119.989 27.642ZM126.307 37.2472C125.472 37.2472 124.727 37.1023 124.074 36.8125C123.42 36.517 122.903 36.0824 122.523 35.5085C122.148 34.929 121.96 34.2074 121.96 33.3438C121.96 32.6165 122.094 32.0057 122.361 31.5114C122.628 31.017 122.991 30.6193 123.452 30.3182C123.912 30.017 124.435 29.7898 125.02 29.6364C125.611 29.483 126.23 29.375 126.878 29.3125C127.639 29.233 128.253 29.1591 128.719 29.0909C129.185 29.017 129.523 28.9091 129.733 28.767C129.943 28.625 130.048 28.4148 130.048 28.1364V28.0852C130.048 27.5455 129.878 27.1278 129.537 26.8324C129.202 26.5369 128.724 26.3892 128.105 26.3892C127.452 26.3892 126.932 26.5341 126.545 26.8239C126.159 27.108 125.903 27.4659 125.778 27.8977L122.42 27.625C122.591 26.8295 122.926 26.142 123.426 25.5625C123.926 24.9773 124.571 24.5284 125.361 24.2159C126.156 23.8977 127.077 23.7386 128.122 23.7386C128.849 23.7386 129.545 23.8239 130.21 23.9943C130.881 24.1648 131.474 24.429 131.991 24.7869C132.514 25.1449 132.926 25.6051 133.227 26.1676C133.528 26.7244 133.679 27.392 133.679 28.1705V37H130.236V35.1847H130.134C129.923 35.5938 129.642 35.9545 129.29 36.267C128.938 36.5739 128.514 36.8153 128.02 36.9915C127.526 37.1619 126.955 37.2472 126.307 37.2472ZM127.347 34.7415C127.881 34.7415 128.352 34.6364 128.761 34.4261C129.17 34.2102 129.491 33.9205 129.724 33.5568C129.957 33.1932 130.074 32.7812 130.074 32.321V30.9318C129.96 31.0057 129.804 31.0739 129.605 31.1364C129.412 31.1932 129.193 31.2472 128.949 31.2983C128.705 31.3437 128.46 31.3864 128.216 31.4261C127.972 31.4602 127.75 31.4915 127.551 31.5199C127.125 31.5824 126.753 31.6818 126.435 31.8182C126.116 31.9545 125.869 32.1392 125.693 32.3722C125.517 32.5994 125.429 32.8835 125.429 33.2244C125.429 33.7188 125.608 34.0966 125.966 34.358C126.33 34.6136 126.79 34.7415 127.347 34.7415ZM136.564 37V19.5455H143.45C144.774 19.5455 145.902 19.7983 146.834 20.304C147.766 20.804 148.476 21.5 148.964 22.392C149.459 23.2784 149.706 24.3011 149.706 25.4602C149.706 26.6193 149.456 27.642 148.956 28.5284C148.456 29.4148 147.732 30.1051 146.783 30.5994C145.839 31.0937 144.697 31.3409 143.357 31.3409H138.967V28.3835H142.76C143.47 28.3835 144.055 28.2614 144.516 28.017C144.982 27.767 145.328 27.4233 145.555 26.9858C145.788 26.5426 145.905 26.0341 145.905 25.4602C145.905 24.8807 145.788 24.375 145.555 23.9432C145.328 23.5057 144.982 23.1676 144.516 22.929C144.05 22.6847 143.459 22.5625 142.743 22.5625H140.254V37H136.564ZM155.416 37.2472C154.581 37.2472 153.837 37.1023 153.183 36.8125C152.53 36.517 152.013 36.0824 151.632 35.5085C151.257 34.929 151.07 34.2074 151.07 33.3438C151.07 32.6165 151.203 32.0057 151.47 31.5114C151.737 31.017 152.101 30.6193 152.561 30.3182C153.021 30.017 153.544 29.7898 154.129 29.6364C154.72 29.483 155.339 29.375 155.987 29.3125C156.749 29.233 157.362 29.1591 157.828 29.0909C158.294 29.017 158.632 28.9091 158.842 28.767C159.053 28.625 159.158 28.4148 159.158 28.1364V28.0852C159.158 27.5455 158.987 27.1278 158.646 26.8324C158.311 26.5369 157.834 26.3892 157.214 26.3892C156.561 26.3892 156.041 26.5341 155.655 26.8239C155.268 27.108 155.013 27.4659 154.888 27.8977L151.53 27.625C151.7 26.8295 152.036 26.142 152.536 25.5625C153.036 24.9773 153.68 24.5284 154.47 24.2159C155.266 23.8977 156.186 23.7386 157.232 23.7386C157.959 23.7386 158.655 23.8239 159.32 23.9943C159.99 24.1648 160.584 24.429 161.101 24.7869C161.624 25.1449 162.036 25.6051 162.337 26.1676C162.638 26.7244 162.788 27.392 162.788 28.1705V37H159.345V35.1847H159.243C159.033 35.5938 158.751 35.9545 158.399 36.267C158.047 36.5739 157.624 36.8153 157.129 36.9915C156.635 37.1619 156.064 37.2472 155.416 37.2472ZM156.456 34.7415C156.99 34.7415 157.462 34.6364 157.871 34.4261C158.28 34.2102 158.601 33.9205 158.834 33.5568C159.067 33.1932 159.183 32.7812 159.183 32.321V30.9318C159.07 31.0057 158.913 31.0739 158.714 31.1364C158.521 31.1932 158.303 31.2472 158.058 31.2983C157.814 31.3437 157.57 31.3864 157.325 31.4261C157.081 31.4602 156.859 31.4915 156.661 31.5199C156.234 31.5824 155.862 31.6818 155.544 31.8182C155.226 31.9545 154.979 32.1392 154.803 32.3722C154.626 32.5994 154.538 32.8835 154.538 33.2244C154.538 33.7188 154.717 34.0966 155.075 34.358C155.439 34.6136 155.899 34.7415 156.456 34.7415ZM167.378 41.9091C166.918 41.9091 166.486 41.8722 166.082 41.7983C165.685 41.7301 165.355 41.642 165.094 41.5341L165.912 38.8239C166.338 38.9545 166.722 39.0256 167.062 39.0369C167.409 39.0483 167.707 38.9688 167.957 38.7983C168.213 38.6278 168.42 38.3381 168.58 37.929L168.793 37.375L164.097 23.9091H167.915L170.625 33.5227H170.761L173.497 23.9091H177.341L172.253 38.4148C172.009 39.1193 171.676 39.733 171.256 40.2557C170.841 40.7841 170.315 41.1903 169.679 41.4744C169.043 41.7642 168.276 41.9091 167.378 41.9091Z" fill="white"/>
<path fill-rule="evenodd" clip-rule="evenodd" d="M2.58374 30.2518L30.6643 48.9868L35.1134 46.4181L36.1378 45.4208L7.78784 27.2472L2.58374 30.2518Z" fill="url(#paint0_linear_5_2032)"/>
<path fill-rule="evenodd" clip-rule="evenodd" d="M15.6112 16.7173L2.66254 23.9424L2.62023 30.3631L36.387 11.4553L36.386 11.1888L31.1435 8.07969L15.6112 16.7173Z" fill="url(#paint1_linear_5_2032)"/>
<path fill-rule="evenodd" clip-rule="evenodd" d="M36.1372 45.4209L38.5806 41.3692L12.4684 24.6849L7.7793 27.4055L36.1372 45.4209Z" fill="url(#paint2_linear_5_2032)"/>
<path fill-rule="evenodd" clip-rule="evenodd" d="M36.3804 11.1606L2.58316 30.267L7.67356 33.5295L36.3804 17.2541L36.3804 11.1606Z" fill="url(#paint3_linear_5_2032)"/>
<path fill-rule="evenodd" clip-rule="evenodd" d="M25.9385 45.8673L31.6074 49.7036L59.4478 30.1388L54.308 27.1714L25.9385 45.8673Z" fill="url(#paint4_linear_5_2032)"/>
<path fill-rule="evenodd" clip-rule="evenodd" d="M46.5001 16.6938L59.3564 23.8674L59.3984 30.242L25.8737 11.4698L25.8747 11.2046L31.0791 8.11809L46.5001 16.6938Z" fill="url(#paint5_linear_5_2032)"/>
<path fill-rule="evenodd" clip-rule="evenodd" d="M25.9939 11.241L59.4357 30.1465L54.3818 33.3856L25.9939 17.2911L25.9939 11.241Z" fill="url(#paint6_linear_5_2032)"/>
<path fill-rule="evenodd" clip-rule="evenodd" d="M36.0947 10.8824L36.1602 39.0362L31.1996 42.2692L31.1199 8.01245L31.1202 8.01226L36.0947 10.8824Z" fill="url(#paint7_linear_5_2032)"/>
<path fill-rule="evenodd" clip-rule="evenodd" d="M26.0426 45.793L31.2138 42.4228L31.1339 8.08157L25.9616 10.9926L26.0426 45.793Z" fill="url(#paint8_linear_5_2032)"/>
<path d="M26.8877 45.2346L26.0795 39.5238L44.4364 27.6496L49.4349 30.4467L26.8877 45.2346Z" fill="url(#paint9_linear_5_2032)"/>
<path d="M9.6853 13.4957L31.0809 1.31665L53.4641 14.154" stroke="url(#paint10_linear_5_2032)" stroke-width="1.04058"/>
<path d="M53.4636 42.133L32.068 54.312L9.68487 41.4746" stroke="url(#paint11_linear_5_2032)" stroke-width="1.04058"/>
<defs>
<linearGradient id="paint0_linear_5_2032" x1="30.0506" y1="46.4999" x2="10.4384" y2="32.5816" gradientUnits="userSpaceOnUse">
<stop stop-color="#02064A"/>
<stop offset="1" stop-color="#0134B9"/>
</linearGradient>
<linearGradient id="paint1_linear_5_2032" x1="5.0613" y1="25.3062" x2="28.6318" y2="12.9631" gradientUnits="userSpaceOnUse">
<stop stop-color="#0285E3"/>
<stop offset="1" stop-color="#01C3FD"/>
</linearGradient>
<linearGradient id="paint2_linear_5_2032" x1="29.1016" y1="39.5409" x2="13.6017" y2="27.8368" gradientUnits="userSpaceOnUse">
<stop stop-color="#4077E2"/>
<stop offset="1" stop-color="#185DEE"/>
</linearGradient>
<linearGradient id="paint3_linear_5_2032" x1="6.95979" y1="31.3161" x2="27.9628" y2="21.7861" gradientUnits="userSpaceOnUse">
<stop stop-color="#0136BD"/>
<stop offset="1" stop-color="#02064A"/>
</linearGradient>
<linearGradient id="paint4_linear_5_2032" x1="52.6293" y1="31.9758" x2="15.0441" y2="52.6318" gradientUnits="userSpaceOnUse">
<stop stop-color="#012897"/>
<stop offset="1" stop-color="#004DF4"/>
</linearGradient>
<linearGradient id="paint5_linear_5_2032" x1="57.2546" y1="25.9386" x2="34.6373" y2="13.8994" gradientUnits="userSpaceOnUse">
<stop stop-color="#01C3FD"/>
<stop offset="1" stop-color="#0285E3"/>
</linearGradient>
<linearGradient id="paint6_linear_5_2032" x1="36.0607" y1="13.6019" x2="34.6705" y2="52.212" gradientUnits="userSpaceOnUse">
<stop stop-color="#02064A"/>
<stop offset="1" stop-color="#004DF4"/>
</linearGradient>
<linearGradient id="paint7_linear_5_2032" x1="34.1634" y1="13.2857" x2="34.4796" y2="39.2244" gradientUnits="userSpaceOnUse">
<stop stop-color="#0285E3"/>
<stop offset="0.494792" stop-color="#0194FE"/>
<stop offset="1" stop-color="#01C3FD"/>
</linearGradient>
<linearGradient id="paint8_linear_5_2032" x1="30.3675" y1="9.80594" x2="30.3675" y2="35.7447" gradientUnits="userSpaceOnUse">
<stop stop-color="#233B8D"/>
<stop offset="1" stop-color="#1A5FED"/>
</linearGradient>
<linearGradient id="paint9_linear_5_2032" x1="16.1326" y1="50.6122" x2="57.8876" y2="21.5102" gradientUnits="userSpaceOnUse">
<stop stop-color="#004DF4"/>
<stop offset="1" stop-color="#5786DB"/>
</linearGradient>
<linearGradient id="paint10_linear_5_2032" x1="31.5747" y1="1.31665" x2="31.5747" y2="14.154" gradientUnits="userSpaceOnUse">
<stop stop-color="white"/>
<stop offset="1" stop-color="white" stop-opacity="0"/>
</linearGradient>
<linearGradient id="paint11_linear_5_2032" x1="31.5742" y1="54.312" x2="31.5742" y2="41.4746" gradientUnits="userSpaceOnUse">
<stop stop-color="white"/>
<stop offset="1" stop-color="white" stop-opacity="0"/>
</linearGradient>
</defs>
</svg>
 